<svg class="lds-spinner" width="200px" height="200px" xmlns="http://www.w3.org/2000/svg"
     xmlns:xlink="http://www.w3.org/1999/xlink" viewBox="0 0 100 100" preserveAspectRatio="xMidYMid"
     style="background: none;">
    <g transform="rotate(0 50 50)">
        <rect x="47" y="41.7" rx="9.4" ry="8.34" width="6" height="0.6" fill="#c1000d">
            <animate attributeName="opacity" values="1;0" keyTimes="0;1" dur="1.8s" begin="-1.575s"
                     repeatCount="indefinite"></animate>
        </rect>
    </g>
    <g transform="rotate(45 50 50)">
        <rect x="47" y="41.7" rx="9.4" ry="8.34" width="6" height="0.6" fill="#c1000d">
            <animate attributeName="opacity" values="1;0" keyTimes="0;1" dur="1.8s" begin="-1.35s"
                     repeatCount="indefinite"></animate>
        </rect>
    </g>
    <g transform="rotate(90 50 50)">
        <rect x="47" y="41.7" rx="9.4" ry="8.34" width="6" height="0.6" fill="#c1000d">
            <animate attributeName="opacity" values="1;0" keyTimes="0;1" dur="1.8s" begin="-1.125s"
                     repeatCount="indefinite"></animate>
        </rect>
    </g>
    <g transform="rotate(135 50 50)">
        <rect x="47" y="41.7" rx="9.4" ry="8.34" width="6" height="0.6" fill="#c1000d">
            <animate attributeName="opacity" values="1;0" keyTimes="0;1" dur="1.8s" begin="-0.9s"
                     repeatCount="indefinite"></animate>
        </rect>
    </g>
    <g transform="rotate(180 50 50)">
        <rect x="47" y="41.7" rx="9.4" ry="8.34" width="6" height="0.6" fill="#c1000d">
            <animate attributeName="opacity" values="1;0" keyTimes="0;1" dur="1.8s" begin="-0.675s"
                     repeatCount="indefinite"></animate>
        </rect>
    </g>
    <g transform="rotate(225 50 50)">
        <rect x="47" y="41.7" rx="9.4" ry="8.34" width="6" height="0.6" fill="#c1000d">
            <animate attributeName="opacity" values="1;0" keyTimes="0;1" dur="1.8s" begin="-0.45s"
                     repeatCount="indefinite"></animate>
        </rect>
    </g>
    <g transform="rotate(270 50 50)">
        <rect x="47" y="41.7" rx="9.4" ry="8.34" width="6" height="0.6" fill="#c1000d">
            <animate attributeName="opacity" values="1;0" keyTimes="0;1" dur="1.8s" begin="-0.225s"
                     repeatCount="indefinite"></animate>
        </rect>
    </g>
    <g transform="rotate(315 50 50)">
        <rect x="47" y="41.7" rx="9.4" ry="8.34" width="6" height="0.6" fill="#c1000d">
            <animate attributeName="opacity" values="1;0" keyTimes="0;1" dur="1.8s" begin="0s"
                     repeatCount="indefinite"></animate>
        </rect>
    </g>
</svg>